{
  "asset": {
    "version": "2.0",
    "generator": "make_scene_gltf.py"
  },
  "buffers": [
    {
      "uri": "scene.bin",
      "byteLength": 432
    }
  ],
  "bufferViews": [
    {
      "buffer": 0,
      "byteOffset": 0,
      "byteLength": 72,
      "target": 34962
    },
    {
      "buffer": 0,
      "byteOffset": 72,
      "byteLength": 72,
      "target": 34962
    },
    {
      "buffer": 0,
      "byteOffset": 144,
      "byteLength": 72,
      "target": 34962
    },
    {
      "buffer": 0,
      "byteOffset": 216,
      "byteLength": 72,
      "target": 34962
    },
    {
      "buffer": 0,
      "byteOffset": 288,
      "byteLength": 72,
      "target": 34962
    },
    {
      "buffer": 0,
      "byteOffset": 360,
      "byteLength": 72,
      "target": 34962
    }
  ],
  "accessors": [
    {
      "bufferView": 0,
      "byteOffset": 0,
      "componentType": 5126,
      "count": 6,
      "type": "VEC3",
      "min": [
        -5.0,
        0.0,
        -10.0
      ],
      "max": [
        5.0,
        0.0,
        5.0
      ]
    },
    {
      "bufferView": 1,
      "byteOffset": 0,
      "componentType": 5126,
      "count": 6,
      "type": "VEC3",
      "min": [
        -5.0,
        0.0,
        -10.0
      ],
      "max": [
        -5.0,
        5.0,
        5.0
      ]
    },
    {
      "bufferView": 2,
      "byteOffset": 0,
      "componentType": 5126,
      "count": 6,
      "type": "VEC3",
      "min": [
        5.0,
        0.0,
        -10.0
      ],
      "max": [
        5.0,
        5.0,
        5.0
      ]
    },
    {
      "bufferView": 3,
      "byteOffset": 0,
      "componentType": 5126,
      "count": 6,
      "type": "VEC3",
      "min": [
        -5.0,
        5.0,
        -10.0
      ],
      "max": [
        5.0,
        5.0,
        5.0
      ]
    },
    {
      "bufferView": 4,
      "byteOffset": 0,
      "componentType": 5126,
      "count": 6,
      "type": "VEC3",
      "min": [
        -5.0,
        0.0,
        -10.0
      ],
      "max": [
        5.0,
        5.0,
        -10.0
      ]
    },
    {
      "bufferView": 5,
      "byteOffset": 0,
      "componentType": 5126,
      "count": 6,
      "type": "VEC3",
      "min": [
        -1.5,
        4.9,
        -7.0
      ],
      "max": [
        1.5,
        4.9,
        -4.0
      ]
    }
  ],
  "materials": [
    {
      "name": "Red",
      "pbrMetallicRoughness": {
        "baseColorFactor": [
          1.0,
          0.0,
          0.0,
          1.0
        ],
        "metallicFactor": 0.0,
        "roughnessFactor": 1.0
      }
    },
    {
      "name": "Green",
      "pbrMetallicRoughness": {
        "baseColorFactor": [
          0.0,
          1.0,
          0.0,
          1.0
        ],
        "metallicFactor": 0.0,
        "roughnessFactor": 1.0
      }
    },
    {
      "name": "White",
      "pbrMetallicRoughness": {
        "baseColorFactor": [
          1.0,
          1.0,
          1.0,
          1.0
        ],
        "metallicFactor": 0.0,
        "roughnessFactor": 1.0
      }
    },
    {
      "name": "CeilingLight",
      "pbrMetallicRoughness": {
        "baseColorFactor": [
          1.0,
          1.0,
          1.0,
          1.0
        ],
        "metallicFactor": 0.0,
        "roughnessFactor": 0.5
      },
      "emissiveFactor": [
        1.0,
        1.0,
        1.0
      ]
    }
  ],
  "meshes": [
    {
      "name": "Floor",
      "primitives": [
        {
          "attributes": {
            "POSITION": 0
          },
          "mode": 4,
          "material": 2
        }
      ]
    },
    {
      "name": "LeftWall",
      "primitives": [
        {
          "attributes": {
            "POSITION": 1
          },
          "mode": 4,
          "material": 0
        }
      ]
    },
    {
      "name": "RightWall",
      "primitives": [
        {
          "attributes": {
            "POSITION": 2
          },
          "mode": 4,
          "material": 1
        }
      ]
    },
    {
      "name": "Ceiling",
      "primitives": [
        {
          "attributes": {
            "POSITION": 3
          },
          "mode": 4,
          "material": 2
        }
      ]
    },
    {
      "name": "BackWall",
      "primitives": [
        {
          "attributes": {
            "POSITION": 4
          },
          "mode": 4,
          "material": 2
        }
      ]
    },
    {
      "name": "CeilingLight",
      "primitives": [
        {
          "attributes": {
            "POSITION": 5
          },
          "mode": 4,
          "material": 3
        }
      ]
    }
  ],
  "nodes": [
    {
      "mesh": 0,
      "name": "FloorNode"
    },
    {
      "mesh": 1,
      "name": "LeftWallNode"
    },
    {
      "mesh": 2,
      "name": "RightWallNode"
    },
    {
      "mesh": 3,
      "name": "CeilingNode"
    },
    {
      "mesh": 4,
      "name": "BackWallNode"
    },
    {
      "mesh": 5,
      "name": "CeilingLightNode"
    }
  ],
  "scenes": [
    {
      "nodes": [
        0,
        1,
        2,
        3,
        4,
        5
      ]
    }
  ],
  "scene": 0
}